<svg width="1920" height="1080" viewBox="0 0 1920 1080" fill="none" xmlns="http://www.w3.org/2000/svg">
<rect width="1920" height="1080" fill="url(#paint0_linear_3001_1137)"/>
<circle cx="595.5" cy="913.5" r="40.5" fill="url(#paint1_linear_3001_1137)"/>
<circle cx="1370.5" cy="187.5" r="42.5" fill="url(#paint2_linear_3001_1137)"/>
<circle cx="1444" cy="122" r="17" fill="url(#paint3_linear_3001_1137)"/>
<ellipse cx="55" cy="54" rx="55" ry="54" transform="matrix(1 0 0 -1 1596 894)" fill="url(#paint4_linear_3001_1137)"/>
<ellipse cx="55" cy="54" rx="55" ry="54" transform="matrix(1 0 0 -1 1596 894)" fill="url(#paint5_linear_3001_1137)"/>
<ellipse cx="17.5" cy="17" rx="17.5" ry="17" transform="matrix(1 0 0 -1 1695 738)" fill="url(#paint6_linear_3001_1137)"/>
<ellipse cx="17.5" cy="17" rx="17.5" ry="17" transform="matrix(1 0 0 -1 1695 738)" fill="url(#paint7_linear_3001_1137)"/>
<circle cx="291" cy="540" r="61" fill="url(#paint8_linear_3001_1137)"/>
<defs>
<linearGradient id="paint0_linear_3001_1137" x1="0" y1="0" x2="1920" y2="1080" gradientUnits="userSpaceOnUse">
<stop stop-color="#F6D7FF"/>
<stop offset="1" stop-color="#DCE9FF"/>
</linearGradient>
<linearGradient id="paint1_linear_3001_1137" x1="574.618" y1="955.405" x2="633.753" y2="876.699" gradientUnits="userSpaceOnUse">
<stop stop-color="#D5DCFF"/>
<stop offset="1" stop-color="#E89DFF"/>
</linearGradient>
<linearGradient id="paint2_linear_3001_1137" x1="1348.59" y1="231.474" x2="1380.4" y2="145" gradientUnits="userSpaceOnUse">
<stop stop-color="#E89DFF"/>
<stop offset="1" stop-color="#D5DCFF"/>
</linearGradient>
<linearGradient id="paint3_linear_3001_1137" x1="1435.23" y1="139.59" x2="1447.96" y2="105" gradientUnits="userSpaceOnUse">
<stop stop-color="#E89DFF"/>
<stop offset="1" stop-color="#D5DCFF"/>
</linearGradient>
<linearGradient id="paint4_linear_3001_1137" x1="13.3526" y1="17.9792" x2="118.815" y2="98.6842" gradientUnits="userSpaceOnUse">
<stop stop-color="#E89DFF"/>
<stop offset="1" stop-color="#D5DCFF"/>
</linearGradient>
<linearGradient id="paint5_linear_3001_1137" x1="98.5574" y1="24.5032" x2="9.8974" y2="86.2145" gradientUnits="userSpaceOnUse">
<stop stop-color="#E4F1FF"/>
<stop offset="1" stop-color="#FDFFC7"/>
</linearGradient>
<linearGradient id="paint6_linear_3001_1137" x1="4.24855" y1="5.66011" x2="37.5402" y2="31.4091" gradientUnits="userSpaceOnUse">
<stop stop-color="#E89DFF"/>
<stop offset="1" stop-color="#D5DCFF"/>
</linearGradient>
<linearGradient id="paint7_linear_3001_1137" x1="31.3592" y1="7.71396" x2="3.34578" y2="27.4211" gradientUnits="userSpaceOnUse">
<stop stop-color="#E4F1FF"/>
<stop offset="1" stop-color="#FDFFC7"/>
</linearGradient>
<linearGradient id="paint8_linear_3001_1137" x1="255.838" y1="491.686" x2="325.788" y2="590.688" gradientUnits="userSpaceOnUse">
<stop stop-color="#E4F1FF"/>
<stop offset="1" stop-color="#FDFFC7"/>
</linearGradient>
</defs>
</svg>
