<svg width="1920" height="1080" viewBox="0 0 1920 1080" fill="none" xmlns="http://www.w3.org/2000/svg">
<rect width="1920" height="1080" fill="url(#paint0_linear_3001_1076)"/>
<circle cx="955.5" cy="928.5" r="45.5" fill="url(#paint1_linear_3001_1076)"/>
<circle cx="1643.5" cy="828.5" r="36.5" fill="url(#paint2_linear_3001_1076)"/>
<circle cx="1703.5" cy="894.5" r="14.5" fill="url(#paint3_linear_3001_1076)"/>
<ellipse cx="39" cy="38.5" rx="39" ry="38.5" transform="matrix(1 0 0 -1 1298 236)" fill="url(#paint4_linear_3001_1076)"/>
<ellipse cx="39" cy="38.5" rx="39" ry="38.5" transform="matrix(1 0 0 -1 1298 236)" fill="url(#paint5_linear_3001_1076)"/>
<ellipse cx="19.5" cy="19" rx="19.5" ry="19" transform="matrix(1 0 0 -1 1408 159)" fill="url(#paint6_linear_3001_1076)"/>
<ellipse cx="19.5" cy="19" rx="19.5" ry="19" transform="matrix(1 0 0 -1 1408 159)" fill="url(#paint7_linear_3001_1076)"/>
<defs>
<linearGradient id="paint0_linear_3001_1076" x1="0" y1="0" x2="1920" y2="1080" gradientUnits="userSpaceOnUse">
<stop stop-color="#F6D7FF"/>
<stop offset="1" stop-color="#DCE9FF"/>
</linearGradient>
<linearGradient id="paint1_linear_3001_1076" x1="932.04" y1="975.578" x2="998.475" y2="887.155" gradientUnits="userSpaceOnUse">
<stop stop-color="#D5DCFF"/>
<stop offset="1" stop-color="#E89DFF"/>
</linearGradient>
<linearGradient id="paint2_linear_3001_1076" x1="1607" y1="829" x2="1670" y2="847.5" gradientUnits="userSpaceOnUse">
<stop stop-color="#E89DFF"/>
<stop offset="1" stop-color="#D5DCFF"/>
</linearGradient>
<linearGradient id="paint3_linear_3001_1076" x1="1689" y1="894.699" x2="1714.03" y2="902.048" gradientUnits="userSpaceOnUse">
<stop stop-color="#E89DFF"/>
<stop offset="1" stop-color="#D5DCFF"/>
</linearGradient>
<linearGradient id="paint4_linear_3001_1076" x1="9.4682" y1="12.8185" x2="84.5507" y2="69.9635" gradientUnits="userSpaceOnUse">
<stop stop-color="#E89DFF"/>
<stop offset="1" stop-color="#D5DCFF"/>
</linearGradient>
<linearGradient id="paint5_linear_3001_1076" x1="69.8862" y1="17.4698" x2="6.79511" y2="61.1456" gradientUnits="userSpaceOnUse">
<stop stop-color="#E4F1FF"/>
<stop offset="1" stop-color="#FDFFC7"/>
</linearGradient>
<linearGradient id="paint6_linear_3001_1076" x1="4.7341" y1="6.32601" x2="41.9141" y2="34.9959" gradientUnits="userSpaceOnUse">
<stop stop-color="#E89DFF"/>
<stop offset="1" stop-color="#D5DCFF"/>
</linearGradient>
<linearGradient id="paint7_linear_3001_1076" x1="34.9431" y1="8.62148" x2="3.66597" y2="30.5584" gradientUnits="userSpaceOnUse">
<stop stop-color="#E4F1FF"/>
<stop offset="1" stop-color="#FDFFC7"/>
</linearGradient>
</defs>
</svg>
